<mxfile host="app.diagrams.net" modified="2023-11-26T23:26:06.979Z" agent="Mozilla/5.0 (Windows NT 10.0; Win64; x64) AppleWebKit/537.36 (KHTML, like Gecko) Chrome/119.0.0.0 Safari/537.36" etag="NMK_fK-eK0wI7Zyx5vZl" version="22.1.4" type="device">
  <diagram name="Page-1" id="m-0aAl3dYG4koM52RgC_">
    <mxGraphModel dx="1050" dy="587" grid="1" gridSize="10" guides="1" tooltips="1" connect="1" arrows="1" fold="1" page="1" pageScale="1" pageWidth="850" pageHeight="1100" math="0" shadow="0">
      <root>
        <mxCell id="0" />
        <mxCell id="1" parent="0" />
        <mxCell id="LVmBWpf0GRepK899oE2r-1" value="«component»&lt;br&gt;«system (C4)»&lt;br&gt;Sistema RobDroneGo" style="html=1;dropTarget=0;whiteSpace=wrap;verticalAlign=top;fillColor=#72c9f7;" parent="1" vertex="1">
          <mxGeometry x="180" y="210" width="580" height="420" as="geometry" />
        </mxCell>
        <mxCell id="LVmBWpf0GRepK899oE2r-2" value="" style="shape=module;jettyWidth=8;jettyHeight=4;fillColor=#72c9f7;" parent="LVmBWpf0GRepK899oE2r-1" vertex="1">
          <mxGeometry x="1" width="20" height="20" relative="1" as="geometry">
            <mxPoint x="-27" y="7" as="offset" />
          </mxGeometry>
        </mxCell>
        <mxCell id="LVmBWpf0GRepK899oE2r-3" value="" style="html=1;rounded=0;fillColor=#72c9f7;" parent="1" vertex="1">
          <mxGeometry x="290" y="200" width="20" height="20" as="geometry" />
        </mxCell>
        <mxCell id="LVmBWpf0GRepK899oE2r-20" value="" style="endArrow=none;html=1;rounded=0;entryX=0.5;entryY=1;entryDx=0;entryDy=0;exitX=0.5;exitY=0;exitDx=0;exitDy=0;" parent="1" source="LVmBWpf0GRepK899oE2r-15" target="LVmBWpf0GRepK899oE2r-3" edge="1">
          <mxGeometry width="50" height="50" relative="1" as="geometry">
            <mxPoint x="350" y="400" as="sourcePoint" />
            <mxPoint x="400" y="350" as="targetPoint" />
          </mxGeometry>
        </mxCell>
        <mxCell id="t0kckS6VvSTNu56snM5p-1" value="«component»&lt;br style=&quot;border-color: var(--border-color);&quot;&gt;«container (C4)»&lt;br&gt;&lt;b&gt;MDRoboISEP&lt;/b&gt;" style="html=1;dropTarget=0;whiteSpace=wrap;fillColor=#72c9f7;" parent="1" vertex="1">
          <mxGeometry x="485" y="400" width="180" height="90" as="geometry" />
        </mxCell>
        <mxCell id="t0kckS6VvSTNu56snM5p-2" value="" style="shape=module;jettyWidth=8;jettyHeight=4;fillColor=#72c9f7;" parent="t0kckS6VvSTNu56snM5p-1" vertex="1">
          <mxGeometry x="1" width="20" height="20" relative="1" as="geometry">
            <mxPoint x="-27" y="7" as="offset" />
          </mxGeometry>
        </mxCell>
        <mxCell id="t0kckS6VvSTNu56snM5p-3" value="«component»&lt;br style=&quot;border-color: var(--border-color);&quot;&gt;«container (C4)»&lt;br&gt;&lt;b&gt;Planeamento&lt;/b&gt;" style="html=1;dropTarget=0;whiteSpace=wrap;fillColor=#72c9f7;" parent="1" vertex="1">
          <mxGeometry x="245" y="480" width="180" height="90" as="geometry" />
        </mxCell>
        <mxCell id="t0kckS6VvSTNu56snM5p-4" value="" style="shape=module;jettyWidth=8;jettyHeight=4;fillColor=#72c9f7;" parent="t0kckS6VvSTNu56snM5p-3" vertex="1">
          <mxGeometry x="1" width="20" height="20" relative="1" as="geometry">
            <mxPoint x="-27" y="7" as="offset" />
          </mxGeometry>
        </mxCell>
        <mxCell id="t0kckS6VvSTNu56snM5p-5" value="«component»&lt;br style=&quot;border-color: var(--border-color);&quot;&gt;«container (C4)»&lt;br&gt;&lt;b&gt;SPA&lt;/b&gt;" style="html=1;dropTarget=0;whiteSpace=wrap;fillColor=#72c9f7;" parent="1" vertex="1">
          <mxGeometry x="245" y="300" width="180" height="90" as="geometry" />
        </mxCell>
        <mxCell id="t0kckS6VvSTNu56snM5p-6" value="" style="shape=module;jettyWidth=8;jettyHeight=4;fillColor=#72c9f7;" parent="t0kckS6VvSTNu56snM5p-5" vertex="1">
          <mxGeometry x="1" width="20" height="20" relative="1" as="geometry">
            <mxPoint x="-27" y="7" as="offset" />
          </mxGeometry>
        </mxCell>
        <mxCell id="LVmBWpf0GRepK899oE2r-15" value="" style="html=1;rounded=0;fillColor=#72c9f7;" parent="1" vertex="1">
          <mxGeometry x="291" y="290" width="20" height="20" as="geometry" />
        </mxCell>
        <mxCell id="t0kckS6VvSTNu56snM5p-10" value="" style="rounded=0;orthogonalLoop=1;jettySize=auto;html=1;endArrow=halfCircle;endFill=0;endSize=6;strokeWidth=1;sketch=0;exitX=1;exitY=0.5;exitDx=0;exitDy=0;" parent="1" source="t0kckS6VvSTNu56snM5p-25" edge="1">
          <mxGeometry relative="1" as="geometry">
            <mxPoint x="630" y="535" as="sourcePoint" />
            <mxPoint x="575" y="370" as="targetPoint" />
          </mxGeometry>
        </mxCell>
        <mxCell id="t0kckS6VvSTNu56snM5p-11" value="" style="rounded=0;orthogonalLoop=1;jettySize=auto;html=1;endArrow=oval;endFill=0;sketch=0;sourcePerimeterSpacing=0;targetPerimeterSpacing=0;endSize=10;exitX=0.5;exitY=0;exitDx=0;exitDy=0;" parent="1" source="t0kckS6VvSTNu56snM5p-1" edge="1">
          <mxGeometry relative="1" as="geometry">
            <mxPoint x="590" y="535" as="sourcePoint" />
            <mxPoint x="575" y="370" as="targetPoint" />
          </mxGeometry>
        </mxCell>
        <mxCell id="t0kckS6VvSTNu56snM5p-12" value="" style="ellipse;whiteSpace=wrap;html=1;align=center;aspect=fixed;fillColor=none;strokeColor=none;resizable=0;perimeter=centerPerimeter;rotatable=0;allowArrows=0;points=[];outlineConnect=1;" parent="1" vertex="1">
          <mxGeometry x="570" y="340" width="10" height="10" as="geometry" />
        </mxCell>
        <mxCell id="t0kckS6VvSTNu56snM5p-15" value="" style="ellipse;whiteSpace=wrap;html=1;align=center;aspect=fixed;fillColor=none;strokeColor=none;resizable=0;perimeter=centerPerimeter;rotatable=0;allowArrows=0;points=[];outlineConnect=1;" parent="1" vertex="1">
          <mxGeometry x="330" y="430" width="10" height="10" as="geometry" />
        </mxCell>
        <mxCell id="t0kckS6VvSTNu56snM5p-19" value="" style="rounded=0;orthogonalLoop=1;jettySize=auto;html=1;endArrow=halfCircle;endFill=0;endSize=6;strokeWidth=1;sketch=0;exitX=0.5;exitY=1;exitDx=0;exitDy=0;" parent="1" source="t0kckS6VvSTNu56snM5p-30" target="t0kckS6VvSTNu56snM5p-21" edge="1">
          <mxGeometry relative="1" as="geometry">
            <mxPoint x="420" y="520" as="sourcePoint" />
          </mxGeometry>
        </mxCell>
        <mxCell id="t0kckS6VvSTNu56snM5p-21" value="" style="ellipse;whiteSpace=wrap;html=1;align=center;aspect=fixed;fillColor=none;strokeColor=none;resizable=0;perimeter=centerPerimeter;rotatable=0;allowArrows=0;points=[];outlineConnect=1;" parent="1" vertex="1">
          <mxGeometry x="570" y="520" width="10" height="10" as="geometry" />
        </mxCell>
        <mxCell id="t0kckS6VvSTNu56snM5p-25" value="" style="html=1;rounded=0;fillColor=#72c9f7;" parent="1" vertex="1">
          <mxGeometry x="415" y="360" width="20" height="20" as="geometry" />
        </mxCell>
        <mxCell id="t0kckS6VvSTNu56snM5p-27" value="" style="html=1;rounded=0;fillColor=#72c9f7;" parent="1" vertex="1">
          <mxGeometry x="565" y="390" width="20" height="20" as="geometry" />
        </mxCell>
        <mxCell id="t0kckS6VvSTNu56snM5p-30" value="" style="html=1;rounded=0;fillColor=#72c9f7;" parent="1" vertex="1">
          <mxGeometry x="565" y="480" width="20" height="20" as="geometry" />
        </mxCell>
        <mxCell id="t0kckS6VvSTNu56snM5p-34" value="MDRI API" style="text;html=1;align=center;verticalAlign=middle;resizable=0;points=[];autosize=1;strokeColor=none;fillColor=none;" parent="1" vertex="1">
          <mxGeometry x="580" y="355" width="80" height="30" as="geometry" />
        </mxCell>
        <mxCell id="t0kckS6VvSTNu56snM5p-35" value="" style="html=1;rounded=0;fillColor=#72c9f7;" parent="1" vertex="1">
          <mxGeometry x="414" y="515" width="20" height="20" as="geometry" />
        </mxCell>
        <mxCell id="t0kckS6VvSTNu56snM5p-36" value="MDRI Planeamento API" style="text;html=1;align=center;verticalAlign=middle;resizable=0;points=[];autosize=1;strokeColor=none;fillColor=none;" parent="1" vertex="1">
          <mxGeometry x="580" y="510" width="150" height="30" as="geometry" />
        </mxCell>
        <mxCell id="vVb1FjikGEQqh2Su9PkQ-1" value="" style="rounded=0;orthogonalLoop=1;jettySize=auto;html=1;endArrow=oval;endFill=0;sketch=0;sourcePerimeterSpacing=0;targetPerimeterSpacing=0;endSize=10;exitX=1;exitY=0.5;exitDx=0;exitDy=0;entryX=0.1;entryY=0.318;entryDx=0;entryDy=0;entryPerimeter=0;" parent="1" source="t0kckS6VvSTNu56snM5p-35" target="t0kckS6VvSTNu56snM5p-21" edge="1">
          <mxGeometry relative="1" as="geometry">
            <mxPoint x="345" y="490" as="sourcePoint" />
            <mxPoint x="345" y="445" as="targetPoint" />
          </mxGeometry>
        </mxCell>
        <mxCell id="vVb1FjikGEQqh2Su9PkQ-2" value="" style="endArrow=none;html=1;rounded=0;align=center;verticalAlign=top;endFill=0;labelBackgroundColor=none;endSize=2;exitX=0.5;exitY=0;exitDx=0;exitDy=0;" parent="1" source="LVmBWpf0GRepK899oE2r-3" target="t0kckS6VvSTNu56snM5p-43" edge="1">
          <mxGeometry relative="1" as="geometry">
            <mxPoint x="300" y="200" as="sourcePoint" />
            <mxPoint x="300" y="130" as="targetPoint" />
          </mxGeometry>
        </mxCell>
        <mxCell id="t0kckS6VvSTNu56snM5p-43" value="" style="ellipse;html=1;fontSize=11;align=center;fillColor=#72c9f7;points=[];aspect=fixed;resizable=0;verticalAlign=bottom;labelPosition=center;verticalLabelPosition=top;flipH=1;" parent="1" vertex="1">
          <mxGeometry x="296" y="150" width="8" height="8" as="geometry" />
        </mxCell>
        <mxCell id="vVb1FjikGEQqh2Su9PkQ-3" value="WebPage" style="text;html=1;align=center;verticalAlign=middle;resizable=0;points=[];autosize=1;strokeColor=none;fillColor=none;" parent="1" vertex="1">
          <mxGeometry x="295" y="158" width="80" height="30" as="geometry" />
        </mxCell>
      </root>
    </mxGraphModel>
  </diagram>
</mxfile>
